<?xml version="1.0" standalone="no"?>
<!DOCTYPE svg PUBLIC "-//W3C//DTD SVG 20010904//EN"
 "http://www.w3.org/TR/2001/REC-SVG-20010904/DTD/svg10.dtd">
<svg version="1.0" xmlns="http://www.w3.org/2000/svg"
 width="225.000000pt" height="225.000000pt" viewBox="0 0 225.000000 225.000000"
 preserveAspectRatio="xMidYMid meet">

<g transform="translate(0.000000,225.000000) scale(0.100000,-0.100000)"
fill="#000000" stroke="none">
<path d="M578 1960 c-52 -16 -98 -52 -126 -98 l-27 -47 0 -690 0 -690 28 -47
c18 -31 44 -57 75 -75 l47 -28 412 -3 411 -3 4 71 3 70 -398 0 -398 0 -24 25
-25 24 0 656 0 656 25 24 24 25 516 0 516 0 24 -25 25 -24 0 -468 0 -468 70 3
71 4 -3 481 -3 482 -28 47 c-18 31 -44 57 -75 75 l-47 28 -535 2 c-294 1 -547
-2 -562 -7z"/>
<path d="M935 1676 c-17 -7 -43 -28 -58 -45 -22 -26 -27 -43 -27 -85 0 -62 21
-95 78 -126 34 -17 35 -19 12 -20 -38 0 -121 -44 -157 -81 -34 -36 -67 -103
-77 -156 l-5 -33 279 0 280 0 0 33 c-1 42 -29 104 -69 149 -35 41 -121 88
-160 88 -24 1 -23 3 12 21 50 26 77 72 77 131 0 39 -6 54 -31 82 -17 20 -47
40 -67 46 -46 12 -50 12 -87 -4z"/>
<path d="M1410 1480 l0 -70 70 0 71 0 -3 68 -3 67 -67 3 -68 3 0 -71z"/>
<path d="M1410 1195 l0 -65 70 0 70 0 0 65 0 65 -70 0 -70 0 0 -65z"/>
<path d="M700 915 l0 -65 425 0 425 0 0 65 0 65 -425 0 -425 0 0 -65z"/>
<path d="M702 633 l3 -68 347 -3 346 -2 4 70 3 70 -353 0 -353 0 3 -67z"/>
<path d="M1550 630 l0 -70 350 0 350 0 0 70 0 70 -350 0 -350 0 0 -70z"/>
<path d="M1550 350 l0 -70 350 0 350 0 0 70 0 70 -350 0 -350 0 0 -70z"/>
<path d="M1550 70 l0 -70 350 0 350 0 0 70 0 70 -350 0 -350 0 0 -70z"/>
</g>
</svg>
